<svg width="14.000000" height="13.998779" viewBox="0 0 14 13.9988" fill="none" xmlns="http://www.w3.org/2000/svg" xmlns:xlink="http://www.w3.org/1999/xlink">
    <desc>
        Created with Pixso.
    </desc>
    <defs/>
    <path id="XMLID 505" d="M1.79 0L12.2 0C13.19 0 14 0.8 14 1.79L14 12.2C14 13.19 13.19 13.99 12.2 13.99L1.79 13.99C0.8 13.99 0 13.19 0 12.2L0 1.79C0 0.8 0.8 0 1.79 0ZM10.19 1.55C9.85 1.55 9.56 1.83 9.56 2.18L9.56 3.69C9.56 4.04 9.85 4.32 10.19 4.32L11.78 4.32C12.12 4.32 12.41 4.04 12.41 3.69L12.41 2.18C12.41 1.83 12.12 1.55 11.78 1.55L10.19 1.55ZM12.41 5.91L11.18 5.91C11.3 6.3 11.36 6.7 11.36 7.12C11.36 9.44 9.41 11.33 7.01 11.33C4.61 11.33 2.66 9.44 2.66 7.12C2.66 6.7 2.72 6.3 2.84 5.91L1.55 5.91L1.55 11.83C1.55 12.14 1.8 12.38 2.11 12.38L11.86 12.38C12.16 12.38 12.41 12.14 12.41 11.83L12.41 5.91ZM7.01 4.24C5.46 4.24 4.2 5.46 4.2 6.96C4.2 8.47 5.46 9.69 7.01 9.69C8.56 9.69 9.82 8.47 9.82 6.96C9.82 5.46 8.56 4.24 7.01 4.24Z" fill="#FFFFFF" fill-opacity="1.000000" fill-rule="nonzero"/>
</svg>
