<svg width="12.000061" height="12.000000" viewBox="0 0 12.0001 12" fill="none" xmlns="http://www.w3.org/2000/svg" xmlns:xlink="http://www.w3.org/1999/xlink">
    <desc>
        Created with Pixso.
    </desc>
    <defs/>
    <path id="Vector" d="M11.03 7.87C10.3 7.87 9.58 7.76 8.89 7.53C8.56 7.42 8.15 7.52 7.94 7.73L6.59 8.75C5.03 7.91 4.06 6.95 3.24 5.4L4.23 4.08C4.48 3.83 4.58 3.45 4.47 3.1C4.24 2.41 4.12 1.69 4.12 0.96C4.12 0.43 3.69 0 3.16 0L0.96 0C0.43 0 0 0.43 0 0.96C0 7.04 4.95 12 11.03 12C11.56 12 12 11.56 12 11.03L12 8.83C12 8.3 11.56 7.87 11.03 7.87Z" fill="#FFFFFF" fill-opacity="1.000000" fill-rule="nonzero"/>
</svg>
