<svg width="14.000000" height="7.922607" viewBox="0 0 14 7.92261" fill="none" xmlns="http://www.w3.org/2000/svg" xmlns:xlink="http://www.w3.org/1999/xlink">
    <desc>
        Created with Pixso.
    </desc>
    <defs/>
    <path id="XMLID 807" d="M12.04 5.03C12.51 5.49 13 5.91 13.42 6.41C13.6 6.63 13.77 6.86 13.91 7.12C14.1 7.49 13.92 7.89 13.6 7.91L11.56 7.91C11.03 7.95 10.61 7.74 10.26 7.38C9.98 7.09 9.71 6.79 9.44 6.49C9.33 6.37 9.21 6.25 9.08 6.16C8.8 5.98 8.56 6.04 8.4 6.33C8.23 6.62 8.2 6.95 8.18 7.28C8.16 7.76 8.01 7.89 7.53 7.91C6.5 7.96 5.52 7.8 4.61 7.28C3.81 6.82 3.19 6.18 2.65 5.44C1.6 4.02 0.79 2.45 0.07 0.84C-0.1 0.47 0.02 0.28 0.42 0.27C1.09 0.26 1.75 0.26 2.42 0.27C2.69 0.27 2.87 0.43 2.97 0.69C3.33 1.57 3.77 2.41 4.33 3.19C4.47 3.4 4.62 3.61 4.84 3.76C5.07 3.92 5.25 3.86 5.37 3.6C5.44 3.43 5.47 3.25 5.48 3.07C5.54 2.46 5.54 1.84 5.45 1.23C5.39 0.85 5.18 0.6 4.8 0.53C4.6 0.49 4.63 0.42 4.72 0.31C4.89 0.11 5.04 0 5.35 0L7.65 0C8.02 0.07 8.1 0.23 8.15 0.59L8.15 3.16C8.15 3.3 8.22 3.72 8.48 3.81C8.68 3.88 8.81 3.71 8.94 3.58C9.49 3 9.88 2.31 10.23 1.59C10.39 1.27 10.52 0.95 10.65 0.62C10.75 0.38 10.9 0.26 11.17 0.26L13.39 0.26C13.46 0.26 13.53 0.27 13.59 0.28C13.96 0.34 14.07 0.5 13.95 0.87C13.77 1.44 13.41 1.92 13.07 2.4C12.7 2.91 12.3 3.4 11.94 3.92C11.6 4.39 11.63 4.62 12.04 5.03Z" fill="#FFFFFF" fill-opacity="1.000000" fill-rule="evenodd"/>
</svg>
