<svg width="60.000000" height="60.000000" viewBox="0 0 60 60" fill="none" xmlns="http://www.w3.org/2000/svg" xmlns:xlink="http://www.w3.org/1999/xlink">
    <desc>
        Created with Pixso.
    </desc>
    <defs>
        <clipPath id="clip20_944">
            <rect id="broken-" rx="0.000000" width="59.000000" height="59.000000" transform="translate(0.500000 0.500000)" fill="white" fill-opacity="0"/>
        </clipPath>
    </defs>
    <rect id="broken-" rx="0.000000" width="59.000000" height="59.000000" transform="translate(0.500000 0.500000)" fill="#FFFFFF" fill-opacity="0"/>
    <g clip-path="url(#clip20_944)">
        <path id="XMLID 220" d="M55.96 4.03C50.59 -1.35 41.84 -1.35 36.46 4.03L30.75 9.74C28.52 11.97 27.11 14.94 26.79 18.08C26.51 20.86 27.08 23.68 28.41 26.11L26.11 28.41C23.68 27.08 20.86 26.51 18.08 26.79C14.94 27.11 11.97 28.52 9.74 30.75L4.03 36.46C-1.35 41.84 -1.35 50.59 4.03 55.96C6.66 58.59 10.19 59.99 13.79 59.99C15.44 59.99 17.1 59.7 18.69 59.1C19.29 58.87 19.6 58.19 19.37 57.58C19.14 56.98 18.46 56.68 17.86 56.91C13.64 58.51 8.86 57.49 5.68 54.31C1.22 49.84 1.22 42.58 5.68 38.12L11.39 32.41C14.82 28.99 20.07 28.13 24.37 30.15L22.3 32.22C19.15 31.15 15.69 31.94 13.31 34.32L7.6 40.03C5.95 41.68 5.04 43.87 5.04 46.21C5.04 48.55 5.95 50.74 7.6 52.39C9.25 54.04 11.44 54.95 13.78 54.95C16.12 54.95 18.31 54.04 19.96 52.39L25.67 46.68C28.04 44.31 28.83 40.87 27.78 37.73L29.85 35.65C31.85 39.94 30.99 45.19 27.58 48.6L25.6 50.58C25.14 51.03 25.14 51.78 25.6 52.23C25.83 52.46 26.13 52.58 26.43 52.58C26.73 52.58 27.03 52.46 27.26 52.23L29.24 50.25C31.46 48.03 32.87 45.08 33.2 41.95C33.49 39.16 32.92 36.34 31.6 33.91L33.91 31.6C35.92 32.69 38.21 33.27 40.51 33.27C40.98 33.27 41.45 33.25 41.92 33.2C45.06 32.88 48.02 31.47 50.25 29.24L55.96 23.53C61.34 18.15 61.34 9.4 55.96 4.03ZM35.98 14.96L41.69 9.25C42.89 8.05 44.5 7.38 46.21 7.38C47.92 7.38 49.53 8.05 50.74 9.25C51.94 10.46 52.61 12.07 52.61 13.78C52.61 15.49 51.94 17.1 50.74 18.3L45.03 24.01C43.61 25.43 41.61 26.07 39.68 25.83L39.68 25.82C41.2 24.31 41.2 21.85 39.68 20.33C38.95 19.6 37.97 19.19 36.93 19.19C35.9 19.19 34.92 19.6 34.19 20.33L34.16 20.36C33.89 18.4 34.53 16.41 35.98 14.96ZM35.85 21.99C36.14 21.7 36.52 21.54 36.93 21.54C37.35 21.54 37.73 21.7 38.02 21.99C38.62 22.59 38.62 23.57 38.02 24.17L32.89 29.3C32.88 29.31 32.88 29.31 32.87 29.32L31.59 30.6L30.14 27.69L35.85 21.99ZM24.17 38.02C23.57 38.62 22.59 38.62 21.99 38.02C21.7 37.73 21.54 37.35 21.54 36.93C21.54 36.52 21.7 36.14 21.99 35.85L28.4 29.44L29.85 32.34L24.17 38.02ZM24.01 45.03L18.3 50.74C17.1 51.94 15.49 52.61 13.78 52.61C12.07 52.61 10.46 51.94 9.25 50.74C8.05 49.53 7.38 47.92 7.38 46.21C7.38 44.5 8.05 42.89 9.25 41.69L14.96 35.98C16.38 34.56 18.4 33.91 20.35 34.17L20.33 34.19C19.6 34.92 19.19 35.9 19.19 36.93C19.19 37.97 19.6 38.95 20.33 39.68C21.09 40.44 22.08 40.82 23.08 40.82C24.07 40.82 25.07 40.44 25.82 39.68L25.83 39.67C26.09 41.61 25.45 43.59 24.01 45.03ZM54.31 21.87L48.6 27.58C45.18 30.99 39.94 31.85 35.65 29.85L37.73 27.78C38.62 28.07 39.55 28.22 40.48 28.22C42.76 28.22 45.02 27.33 46.68 25.67L52.39 19.96C54.04 18.31 54.95 16.12 54.95 13.78C54.95 11.44 54.04 9.25 52.39 7.6C50.74 5.95 48.55 5.04 46.21 5.04C43.87 5.04 41.68 5.95 40.03 7.6L34.32 13.31C31.94 15.69 31.15 19.15 32.22 22.3L30.15 24.37C28.13 20.07 28.99 14.82 32.41 11.39L38.12 5.68C42.58 1.22 49.84 1.22 54.31 5.68C58.77 10.15 58.77 17.41 54.31 21.87Z" fill="#000000" fill-opacity="1.000000" fill-rule="nonzero"/>
        <path id="XMLID 1325" d="M49.27 44.47C49.14 44.09 48.82 43.8 48.43 43.71C48.04 43.62 47.63 43.74 47.34 44.03L45.34 46.02L43.87 41.82C43.66 41.21 42.99 40.89 42.38 41.1C41.77 41.31 41.45 41.98 41.66 42.59L43.75 48.56C43.88 48.94 44.2 49.22 44.59 49.31C44.99 49.4 45.4 49.28 45.68 49L47.68 47L49.15 51.2C49.32 51.69 49.77 51.99 50.26 51.99C50.39 51.99 50.52 51.97 50.64 51.92C51.25 51.71 51.58 51.04 51.36 50.43L49.27 44.47Z" fill="#399A3A" fill-opacity="1.000000" fill-rule="nonzero"/>
        <path id="XMLID 1327" d="M51.21 35.18L46.51 35.18C45.86 35.18 45.34 35.71 45.34 36.36C45.34 37 45.86 37.53 46.51 37.53L51.21 37.53C51.86 37.53 52.38 37 52.38 36.36C52.38 35.71 51.86 35.18 51.21 35.18Z" fill="#399A3A" fill-opacity="1.000000" fill-rule="nonzero"/>
        <path id="XMLID 1328" d="M36.36 45.34C35.71 45.34 35.18 45.86 35.18 46.51L35.18 51.21C35.18 51.86 35.71 52.38 36.36 52.38C37 52.38 37.53 51.86 37.53 51.21L37.53 46.51C37.53 45.86 37 45.34 36.36 45.34Z" fill="#399A3A" fill-opacity="1.000000" fill-rule="nonzero"/>
        <path id="XMLID 1510" d="M8.81 10.86L13.01 12.33L11.01 14.33C10.73 14.61 10.61 15.03 10.7 15.42C10.79 15.81 11.08 16.13 11.46 16.26L17.42 18.35C17.55 18.4 17.68 18.42 17.81 18.42C18.29 18.42 18.74 18.12 18.91 17.63C19.13 17.02 18.8 16.35 18.19 16.14L13.99 14.67L15.99 12.67C16.27 12.39 16.39 11.98 16.3 11.58C16.21 11.19 15.93 10.87 15.54 10.74L9.58 8.65C8.97 8.44 8.3 8.76 8.09 9.37C7.88 9.98 8.2 10.65 8.81 10.86Z" fill="#399A3A" fill-opacity="1.000000" fill-rule="nonzero"/>
        <path id="XMLID 1538" d="M23.66 14.67C24.3 14.67 24.83 14.15 24.83 13.5L24.83 8.8C24.83 8.16 24.3 7.63 23.66 7.63C23.01 7.63 22.48 8.16 22.48 8.8L22.48 13.5C22.48 14.15 23.01 14.67 23.66 14.67Z" fill="#399A3A" fill-opacity="1.000000" fill-rule="nonzero"/>
        <path id="XMLID 1540" d="M8.8 24.83L13.5 24.83C14.15 24.83 14.67 24.3 14.67 23.65C14.67 23.01 14.15 22.48 13.5 22.48L8.8 22.48C8.16 22.48 7.63 23.01 7.63 23.65C7.63 24.3 8.16 24.83 8.8 24.83Z" fill="#399A3A" fill-opacity="1.000000" fill-rule="nonzero"/>
        <path id="XMLID 1542" d="M22.7 53.96C22.39 53.96 22.09 54.09 21.87 54.31C21.65 54.52 21.53 54.83 21.53 55.13C21.53 55.44 21.65 55.74 21.87 55.96C22.09 56.18 22.39 56.31 22.7 56.31C23.01 56.31 23.31 56.18 23.53 55.96C23.75 55.74 23.87 55.44 23.87 55.13C23.87 54.83 23.75 54.52 23.53 54.31C23.31 54.09 23.01 53.96 22.7 53.96Z" fill="#399A3A" fill-opacity="1.000000" fill-rule="nonzero"/>
    </g>
</svg>
