<svg width="60.000000" height="60.000000" viewBox="0 0 60 60" fill="none" xmlns="http://www.w3.org/2000/svg" xmlns:xlink="http://www.w3.org/1999/xlink">
    <desc>
        Created with Pixso.
    </desc>
    <defs>
        <clipPath id="clip20_779">
            <rect id="discount (2) 1" rx="0.000000" width="59.000000" height="58.999908" transform="translate(0.500000 0.500000)" fill="white" fill-opacity="0"/>
        </clipPath>
    </defs>
    <rect id="discount (2) 1" rx="0.000000" width="59.000000" height="58.999908" transform="translate(0.500000 0.500000)" fill="#FFFFFF" fill-opacity="0"/>
    <g clip-path="url(#clip20_779)">
        <path id="Vector" d="M20.83 24.24C21.29 23.79 21.29 23.04 20.83 22.59C20.37 22.13 19.63 22.13 19.17 22.59C18.72 23.04 18.72 23.79 19.17 24.24C19.63 24.7 20.37 24.7 20.83 24.24Z" fill="#399A3A" fill-opacity="1.000000" fill-rule="nonzero"/>
        <path id="Vector" d="M32.43 25.9C33.8 24.53 33.8 22.3 32.43 20.93C31.06 19.56 28.83 19.56 27.46 20.93C26.09 22.3 26.09 24.53 27.46 25.9C28.83 27.27 31.06 27.27 32.43 25.9ZM29.12 22.59C29.58 22.13 30.32 22.13 30.78 22.59C31.23 23.04 31.23 23.79 30.78 24.24C30.32 24.7 29.57 24.7 29.12 24.24C28.66 23.79 28.66 23.05 29.12 22.59Z" fill="#181818" fill-opacity="1.000000" fill-rule="nonzero"/>
        <path id="Vector" d="M27.46 34.19C26.09 35.56 26.09 37.78 27.46 39.16C28.83 40.53 31.06 40.53 32.43 39.16C33.8 37.79 33.8 35.56 32.43 34.19C31.06 32.81 28.83 32.81 27.46 34.19ZM30.78 37.5C30.32 37.96 29.58 37.96 29.12 37.5C28.66 37.04 28.66 36.3 29.12 35.84C29.58 35.39 30.32 35.39 30.78 35.84C31.23 36.3 31.23 37.04 30.78 37.5Z" fill="#181818" fill-opacity="1.000000" fill-rule="nonzero"/>
        <path id="Vector" d="M20.51 31.93C20.64 32.57 21.26 32.98 21.89 32.85L38.46 29.54C39.1 29.41 39.51 28.79 39.38 28.16C39.25 27.52 38.64 27.11 38 27.24L21.43 30.55C20.79 30.68 20.38 31.3 20.51 31.93Z" fill="#181818" fill-opacity="1.000000" fill-rule="nonzero"/>
        <path id="Vector" d="M35.62 6.62C35.31 6.62 35.01 6.75 34.79 6.97L22.49 19.27C22.03 19.73 22.03 20.47 22.49 20.93C22.95 21.39 23.69 21.39 24.15 20.93L35.62 9.45L50.54 24.37L24.23 50.68L9.31 35.76L17.52 27.56C17.98 27.1 17.98 26.36 17.52 25.9C17.06 25.44 16.32 25.44 15.86 25.9L6.83 34.93C6.37 35.39 6.37 36.13 6.83 36.59L23.4 53.16C23.86 53.62 24.6 53.62 25.06 53.16L53.02 25.2C53.48 24.74 53.48 24 53.02 23.54L36.45 6.97C36.23 6.75 35.93 6.62 35.62 6.62Z" fill="#399A3A" fill-opacity="1.000000" fill-rule="nonzero"/>
        <path id="Vector" d="M57.99 0.34L52.96 5.37C50.03 3.15 45.98 3.12 43.07 5.28L38.95 1.04C38.94 1.03 38.94 1.03 38.93 1.03C37.57 -0.34 35.34 -0.36 33.96 1.03L1.03 34.11C-0.35 35.48 -0.35 37.7 1.03 39.08L5.67 43.73C4.63 46.7 5.38 50.07 7.65 52.34C9.92 54.61 13.29 55.35 16.26 54.32L20.91 58.96C22.29 60.34 24.51 60.34 25.88 58.97L58.96 26.03C60.34 24.65 60.34 22.43 58.96 21.05C58.96 21.05 58.96 21.05 58.95 21.04L54.71 16.92C56.87 14.03 56.86 9.98 54.62 7.03L59.65 2C60.11 1.54 60.11 0.8 59.65 0.34C59.19 -0.12 58.45 -0.12 57.99 0.34ZM52.28 16.17C52.06 16.39 51.93 16.69 51.93 17C51.94 17.32 52.06 17.62 52.29 17.84L57.31 22.72C57.77 23.18 57.76 23.91 57.31 24.37L24.23 57.31C23.77 57.76 23.03 57.76 22.57 57.31L17.37 52.11C17.15 51.89 16.85 51.77 16.54 51.77C16.37 51.77 16.2 51.8 16.05 51.88C13.79 52.93 11.09 52.45 9.31 50.68C7.54 48.9 7.05 46.2 8.11 43.94C8.32 43.5 8.23 42.97 7.88 42.62L2.68 37.42C2.23 36.96 2.23 36.22 2.68 35.76L35.62 2.68C36.08 2.23 36.81 2.22 37.27 2.68L42.15 7.7C42.59 8.15 43.34 8.19 43.82 7.71C45.83 5.71 48.97 5.49 51.28 7.05L49.56 8.77C48.26 8.14 46.64 8.37 45.56 9.45C44.19 10.82 44.19 13.06 45.56 14.43C46.94 15.8 49.16 15.8 50.54 14.43C51.64 13.32 51.83 11.7 51.22 10.42L52.94 8.7C54.49 10.99 54.31 14.14 52.28 16.17ZM48.88 11.11C49.34 11.57 49.34 12.31 48.88 12.77C48.42 13.23 47.68 13.23 47.22 12.77C46.76 12.31 46.76 11.57 47.22 11.11C47.68 10.65 48.42 10.65 48.88 11.11Z" fill="#181818" fill-opacity="1.000000" fill-rule="nonzero"/>
    </g>
</svg>
