<svg width="60.000000" height="60.000000" viewBox="0 0 60 60" fill="none" xmlns="http://www.w3.org/2000/svg" xmlns:xlink="http://www.w3.org/1999/xlink">
    <desc>
        Created with Pixso.
    </desc>
    <defs>
        <clipPath id="clip20_899">
            <rect id="factory 1" rx="0.000000" width="59.000000" height="59.000000" transform="translate(0.500000 0.500000)" fill="white" fill-opacity="0"/>
        </clipPath>
    </defs>
    <rect id="factory 1" rx="0.000000" width="59.000000" height="59.000000" transform="translate(0.500000 0.500000)" fill="#FFFFFF" fill-opacity="0"/>
    <g clip-path="url(#clip20_899)">
        <path id="Vector" d="M50 39.53L41.65 39.53L41.65 20.9C41.65 20.24 41.12 19.71 40.46 19.71L19.53 19.71C18.87 19.71 18.34 20.24 18.34 20.9L18.34 39.53L9.99 39.53C4.48 39.53 0 44.01 0 49.52C0 55.04 4.48 59.52 9.99 59.52L50 59.52C55.51 59.52 60 55.04 60 49.52C60 44.01 55.51 39.53 50 39.53ZM28.66 22.1L31.33 22.1L31.33 28.33L28.66 28.33L28.66 22.1ZM20.73 22.1L26.27 22.1L26.27 29.52C26.27 30.18 26.8 30.72 27.46 30.72L32.53 30.72C33.19 30.72 33.72 30.18 33.72 29.52L33.72 22.1L39.26 22.1L39.26 39.53L20.73 39.53L20.73 22.1ZM50 57.13L9.99 57.13C5.8 57.13 2.39 53.72 2.39 49.52C2.39 45.33 5.8 41.92 9.99 41.92L50 41.92C54.19 41.92 57.6 45.33 57.6 49.52C57.6 53.72 54.19 57.13 50 57.13Z" fill="#181818" fill-opacity="1.000000" fill-rule="nonzero"/>
        <path id="Vector" d="M20.11 45.26C17.79 45.26 15.91 47.15 15.91 49.46C15.91 51.78 17.79 53.67 20.11 53.67C22.43 53.67 24.32 51.78 24.32 49.46C24.32 47.15 22.43 45.26 20.11 45.26ZM20.11 51.28C19.11 51.28 18.3 50.46 18.3 49.46C18.3 48.46 19.11 47.65 20.11 47.65C21.11 47.65 21.92 48.46 21.92 49.46C21.92 50.46 21.11 51.28 20.11 51.28Z" fill="#181818" fill-opacity="1.000000" fill-rule="nonzero"/>
        <path id="Vector" d="M10.23 45.26C7.91 45.26 6.03 47.15 6.03 49.46C6.03 51.78 7.91 53.67 10.23 53.67C12.55 53.67 14.43 51.78 14.43 49.46C14.43 47.15 12.55 45.26 10.23 45.26ZM10.23 51.28C9.23 51.28 8.42 50.46 8.42 49.46C8.42 48.46 9.23 47.65 10.23 47.65C11.23 47.65 12.04 48.46 12.04 49.46C12.04 50.46 11.23 51.28 10.23 51.28Z" fill="#399A3A" fill-opacity="1.000000" fill-rule="nonzero"/>
        <path id="Vector" d="M29.99 45.26C27.68 45.26 25.79 47.15 25.79 49.46C25.79 51.78 27.68 53.67 29.99 53.67C32.31 53.67 34.2 51.78 34.2 49.46C34.2 47.15 32.31 45.26 29.99 45.26ZM29.99 51.28C29 51.28 28.18 50.46 28.18 49.46C28.18 48.46 29 47.65 29.99 47.65C30.99 47.65 31.81 48.46 31.81 49.46C31.81 50.46 30.99 51.28 29.99 51.28Z" fill="#399A3A" fill-opacity="1.000000" fill-rule="nonzero"/>
        <path id="Vector" d="M39.88 45.26C37.56 45.26 35.67 47.15 35.67 49.46C35.67 51.78 37.56 53.67 39.88 53.67C42.2 53.67 44.08 51.78 44.08 49.46C44.08 47.15 42.2 45.26 39.88 45.26ZM39.88 51.28C38.88 51.28 38.07 50.46 38.07 49.46C38.07 48.46 38.88 47.65 39.88 47.65C40.88 47.65 41.69 48.46 41.69 49.46C41.69 50.46 40.88 51.28 39.88 51.28Z" fill="#181818" fill-opacity="1.000000" fill-rule="nonzero"/>
        <path id="Vector" d="M49.76 45.26C47.44 45.26 45.56 47.15 45.56 49.46C45.56 51.78 47.44 53.67 49.76 53.67C52.08 53.67 53.96 51.78 53.96 49.46C53.96 47.15 52.08 45.26 49.76 45.26ZM49.76 51.28C48.76 51.28 47.95 50.46 47.95 49.46C47.95 48.46 48.76 47.65 49.76 47.65C50.76 47.65 51.57 48.46 51.57 49.46C51.57 50.46 50.76 51.28 49.76 51.28Z" fill="#399A3A" fill-opacity="1.000000" fill-rule="nonzero"/>
        <path id="Vector" d="M36.58 35.71L36.03 35.71C35.37 35.71 34.83 36.25 34.83 36.91C34.83 37.57 35.37 38.1 36.03 38.1L36.58 38.1C37.24 38.1 37.78 37.57 37.78 36.91C37.78 36.25 37.24 35.71 36.58 35.71Z" fill="#399A3A" fill-opacity="1.000000" fill-rule="nonzero"/>
        <path id="Vector" d="M32.33 35.71L23.41 35.71C22.75 35.71 22.21 36.25 22.21 36.91C22.21 37.57 22.75 38.1 23.41 38.1L32.33 38.1C32.99 38.1 33.53 37.57 33.53 36.91C33.53 36.25 32.99 35.71 32.33 35.71Z" fill="#399A3A" fill-opacity="1.000000" fill-rule="nonzero"/>
    </g>
</svg>
