<svg width="60.000000" height="60.000000" viewBox="0 0 60 60" fill="none" xmlns="http://www.w3.org/2000/svg" xmlns:xlink="http://www.w3.org/1999/xlink">
    <desc>
        Created with Pixso.
    </desc>
    <defs>
        <clipPath id="clip20_854">
            <rect id="quality (1) 1" rx="0.000000" width="59.000000" height="59.000000" transform="translate(0.500000 0.500000)" fill="white" fill-opacity="0"/>
        </clipPath>
    </defs>
    <rect id="quality (1) 1" rx="0.000000" width="59.000000" height="59.000000" transform="translate(0.500000 0.500000)" fill="#FFFFFF" fill-opacity="0"/>
    <g clip-path="url(#clip20_854)">
        <path id="Vector" d="M44.66 3.92C44.1 3.6 43.38 3.79 43.06 4.35C42.74 4.92 42.93 5.63 43.49 5.96C44.05 6.28 44.77 6.09 45.09 5.53C45.42 4.97 45.22 4.25 44.66 3.92Z" fill="#399A3A" fill-opacity="1.000000" fill-rule="nonzero"/>
        <path id="Vector" d="M30 0C29.35 0 28.82 0.52 28.82 1.17C28.82 1.82 29.35 2.34 30 2.34C30.64 2.34 31.17 1.82 31.17 1.17C31.17 0.52 30.64 0 30 0Z" fill="#399A3A" fill-opacity="1.000000" fill-rule="nonzero"/>
        <path id="Vector" d="M30 31.21C29.35 31.21 28.82 31.74 28.82 32.38C28.82 33.03 29.35 33.56 30 33.56C30.64 33.56 31.17 33.03 31.17 32.38C31.17 31.74 30.64 31.21 30 31.21Z" fill="#399A3A" fill-opacity="1.000000" fill-rule="nonzero"/>
        <path id="Vector" d="M16.93 4.35C16.61 3.79 15.89 3.6 15.33 3.92C14.77 4.25 14.57 4.97 14.9 5.53C15.22 6.09 15.94 6.28 16.5 5.96C17.06 5.63 17.25 4.92 16.93 4.35Z" fill="#399A3A" fill-opacity="1.000000" fill-rule="nonzero"/>
        <path id="Vector" d="M30 4.69C29.35 4.69 28.82 5.21 28.82 5.86L28.82 10.56C28.82 11.2 29.35 11.73 30 11.73C30.64 11.73 31.17 11.2 31.17 10.56L31.17 5.86C31.17 5.21 30.64 4.69 30 4.69Z" fill="#399A3A" fill-opacity="1.000000" fill-rule="nonzero"/>
        <path id="Vector" d="M21.62 12.49L19.28 8.42C18.95 7.86 18.23 7.67 17.67 7.99C17.11 8.31 16.92 9.03 17.24 9.59L19.59 13.66C19.81 14.04 20.2 14.25 20.61 14.25C20.81 14.25 21.01 14.2 21.19 14.09C21.76 13.76 21.95 13.05 21.62 12.49Z" fill="#399A3A" fill-opacity="1.000000" fill-rule="nonzero"/>
        <path id="Vector" d="M42.32 7.99C41.75 7.67 41.04 7.86 40.71 8.42L38.37 12.49C38.04 13.05 38.24 13.76 38.8 14.09C38.98 14.2 39.18 14.25 39.38 14.25C39.79 14.25 40.18 14.04 40.4 13.66L42.75 9.59C43.07 9.03 42.88 8.31 42.32 7.99Z" fill="#399A3A" fill-opacity="1.000000" fill-rule="nonzero"/>
        <path id="Vector" d="M54.64 32.38C54.64 32.36 54.64 32.35 54.64 32.33C54.64 32.32 54.63 32.3 54.63 32.29C54.63 32.28 54.63 32.27 54.63 32.26C54.63 32.25 54.63 32.23 54.63 32.22C54.62 32.2 54.62 32.19 54.62 32.17C54.62 32.16 54.62 32.15 54.61 32.14C54.61 32.13 54.61 32.12 54.61 32.11C54.6 32.09 54.6 32.08 54.59 32.06C54.59 32.05 54.59 32.04 54.58 32.03C54.58 32.02 54.58 32.01 54.57 32C54.57 31.99 54.56 31.97 54.56 31.96C54.55 31.94 54.55 31.93 54.54 31.92C54.54 31.91 54.54 31.9 54.53 31.9C54.53 31.88 54.52 31.87 54.51 31.85C54.5 31.84 54.5 31.82 54.49 31.81C54.49 31.81 54.49 31.81 54.49 31.81L47.46 19.37C47.45 19.36 47.45 19.36 47.44 19.35C47.42 19.32 47.4 19.28 47.38 19.25C47.37 19.24 47.37 19.24 47.36 19.23C47.33 19.19 47.3 19.15 47.27 19.12C47.27 19.12 47.27 19.12 47.27 19.12C47.23 19.09 47.2 19.06 47.16 19.03C47.15 19.02 47.14 19.01 47.14 19.01C47.11 18.98 47.08 18.96 47.04 18.94C47.03 18.94 47.02 18.93 47.01 18.93C46.97 18.9 46.93 18.88 46.89 18.86C46.89 18.86 46.89 18.86 46.89 18.86C46.89 18.86 46.89 18.86 46.89 18.86C46.84 18.84 46.8 18.83 46.76 18.82C46.74 18.81 46.73 18.81 46.72 18.81C46.68 18.8 46.65 18.79 46.61 18.79C46.6 18.78 46.59 18.78 46.57 18.78C46.53 18.78 46.48 18.77 46.43 18.77C46.43 18.77 46.43 18.77 46.43 18.77L46.43 18.77C46.43 18.77 46.43 18.77 46.43 18.77L30 18.77L29.99 18.77L13.57 18.77C13.52 18.77 13.47 18.78 13.42 18.78C13.41 18.78 13.4 18.78 13.39 18.79C13.35 18.79 13.32 18.8 13.28 18.81C13.27 18.81 13.26 18.81 13.24 18.82C13.2 18.83 13.17 18.84 13.13 18.86C13.12 18.86 13.12 18.86 13.11 18.86C13.11 18.86 13.11 18.86 13.11 18.87C13.06 18.88 13.02 18.9 12.98 18.93C12.97 18.93 12.97 18.94 12.96 18.94C12.92 18.96 12.89 18.98 12.86 19.01C12.85 19.01 12.85 19.02 12.84 19.03C12.8 19.05 12.77 19.08 12.74 19.11C12.74 19.11 12.73 19.12 12.73 19.12C12.7 19.16 12.67 19.19 12.64 19.23C12.63 19.24 12.63 19.24 12.62 19.25C12.6 19.28 12.58 19.32 12.56 19.35C12.55 19.36 12.55 19.36 12.55 19.37L5.52 31.78C5.52 31.78 5.52 31.78 5.52 31.78L5.5 31.81C5.5 31.81 5.5 31.81 5.5 31.81C5.49 31.82 5.49 31.84 5.48 31.85C5.47 31.87 5.46 31.88 5.46 31.9C5.45 31.91 5.45 31.91 5.45 31.92C5.44 31.93 5.44 31.94 5.43 31.96C5.43 31.97 5.42 31.99 5.41 32.01C5.41 32.01 5.41 32.02 5.41 32.03C5.4 32.04 5.4 32.05 5.4 32.07C5.39 32.08 5.39 32.1 5.38 32.11C5.38 32.12 5.38 32.13 5.38 32.14C5.37 32.15 5.37 32.17 5.37 32.18C5.37 32.19 5.37 32.21 5.36 32.22C5.36 32.24 5.36 32.25 5.36 32.26C5.36 32.27 5.36 32.28 5.36 32.29C5.36 32.31 5.35 32.32 5.35 32.34C5.35 32.35 5.35 32.36 5.35 32.38C5.35 32.38 5.35 32.38 5.35 32.38C5.35 32.39 5.35 32.4 5.35 32.4C5.35 32.42 5.35 32.44 5.35 32.45C5.36 32.46 5.36 32.48 5.36 32.49C5.36 32.5 5.36 32.51 5.36 32.52C5.36 32.54 5.36 32.55 5.37 32.57C5.37 32.58 5.37 32.59 5.37 32.6C5.37 32.61 5.38 32.62 5.38 32.64C5.38 32.65 5.39 32.66 5.39 32.68C5.39 32.69 5.4 32.7 5.4 32.71C5.4 32.72 5.41 32.74 5.41 32.75C5.41 32.76 5.42 32.77 5.42 32.79C5.43 32.8 5.43 32.81 5.44 32.82C5.44 32.83 5.45 32.84 5.45 32.85C5.46 32.87 5.46 32.88 5.47 32.89C5.47 32.9 5.48 32.91 5.48 32.92C5.49 32.93 5.5 32.95 5.5 32.96C5.51 32.97 5.51 32.98 5.52 32.99C5.53 33 5.53 33.01 5.54 33.02C5.55 33.03 5.56 33.04 5.56 33.05C5.57 33.06 5.58 33.07 5.58 33.08C5.59 33.09 5.6 33.11 5.61 33.12C5.62 33.13 5.63 33.14 5.64 33.15C5.64 33.15 5.64 33.16 5.65 33.16L29.27 59.6C29.3 59.64 29.33 59.67 29.36 59.7C29.36 59.7 29.37 59.7 29.37 59.71C29.41 59.74 29.44 59.76 29.48 59.79C29.49 59.8 29.5 59.8 29.52 59.81C29.55 59.83 29.58 59.85 29.62 59.87C29.63 59.88 29.64 59.88 29.65 59.89C29.7 59.91 29.74 59.93 29.79 59.94C29.8 59.94 29.81 59.95 29.83 59.95C29.86 59.96 29.9 59.97 29.94 59.98C29.96 59.98 29.97 59.98 29.99 59.98C30.04 59.99 30.09 59.99 30.14 59.99C30.14 59.99 30.14 59.99 30.15 59.99C30.2 59.99 30.25 59.99 30.3 59.98C30.32 59.98 30.33 59.98 30.34 59.98C30.38 59.97 30.42 59.96 30.46 59.95C30.47 59.95 30.49 59.94 30.5 59.94C30.54 59.92 30.59 59.91 30.64 59.88C30.65 59.88 30.66 59.87 30.67 59.87C30.7 59.85 30.74 59.83 30.77 59.81C30.78 59.8 30.8 59.79 30.81 59.79C30.85 59.76 30.88 59.73 30.91 59.7C30.92 59.7 30.92 59.7 30.93 59.69C30.96 59.66 30.99 59.63 31.02 59.6L54.35 33.16C54.35 33.16 54.35 33.15 54.36 33.15C54.36 33.14 54.37 33.13 54.38 33.12C54.39 33.11 54.4 33.09 54.41 33.08C54.42 33.07 54.42 33.06 54.43 33.05C54.43 33.04 54.44 33.03 54.45 33.02C54.46 33.01 54.46 33 54.47 32.99C54.48 32.98 54.48 32.97 54.49 32.96C54.5 32.94 54.5 32.93 54.51 32.92C54.51 32.91 54.52 32.9 54.52 32.89C54.53 32.88 54.54 32.86 54.54 32.85C54.55 32.84 54.55 32.83 54.55 32.82C54.56 32.81 54.56 32.8 54.57 32.79C54.57 32.77 54.58 32.76 54.58 32.75C54.58 32.73 54.59 32.72 54.59 32.71C54.59 32.7 54.6 32.69 54.6 32.68C54.6 32.66 54.61 32.65 54.61 32.63C54.61 32.62 54.62 32.61 54.62 32.6C54.62 32.59 54.62 32.58 54.62 32.56C54.63 32.55 54.63 32.53 54.63 32.52C54.63 32.51 54.63 32.5 54.63 32.49C54.63 32.48 54.63 32.46 54.64 32.45C54.64 32.43 54.64 32.42 54.64 32.4C54.64 32.4 54.64 32.39 54.64 32.38C54.64 32.38 54.64 32.38 54.64 32.38ZM44.67 21.12L40.86 30.2L32.64 21.12L44.67 21.12ZM27.37 21.12L19.22 30.21L15.34 21.12L27.37 21.12ZM13.42 22.59L17.09 31.21L8.54 31.21L13.42 22.59ZM9.15 33.56L18.09 33.56L26.26 52.72L9.15 33.56ZM30.13 55.81L20.65 33.56L25.3 33.56C25.95 33.56 26.47 33.03 26.47 32.38C26.47 31.74 25.95 31.21 25.3 31.21L21.47 31.21L30 21.7L38.62 31.21L34.69 31.21C34.04 31.21 33.52 31.74 33.52 32.38C33.52 33.03 34.04 33.56 34.69 33.56L39.46 33.56L30.13 55.81ZM33.98 52.7L42 33.56L50.87 33.56L33.98 52.7ZM42.98 31.21L46.59 22.61L51.45 31.21L42.98 31.21Z" fill="#181818" fill-opacity="1.000000" fill-rule="nonzero"/>
    </g>
</svg>
