<svg width="60.000000" height="60.000000" viewBox="0 0 60 60" fill="none" xmlns="http://www.w3.org/2000/svg" xmlns:xlink="http://www.w3.org/1999/xlink">
    <desc>
        Created with Pixso.
    </desc>
    <defs>
        <clipPath id="clip20_836">
            <rect id="safe 1" rx="0.000000" width="59.000000" height="59.000000" transform="translate(0.500000 0.500000)" fill="white" fill-opacity="0"/>
        </clipPath>
    </defs>
    <rect id="safe 1" rx="0.000000" width="59.000000" height="59.000000" transform="translate(0.500000 0.500000)" fill="#FFFFFF" fill-opacity="0"/>
    <g clip-path="url(#clip20_836)">
        <path id="Vector" d="M42.16 29.51C45.02 25.43 46.53 20.64 46.53 15.65L46.53 4.54C46.53 3.99 46.15 3.52 45.62 3.4L30.48 0.02C30.32 -0.01 30.14 -0.01 29.97 0.02L14.84 3.4C14.31 3.52 13.93 3.99 13.93 4.54L13.93 15.65C13.93 20.64 15.44 25.43 18.3 29.51C21.16 33.6 25.14 36.65 29.83 38.36C29.96 38.4 30.09 38.43 30.23 38.43C30.36 38.43 30.5 38.4 30.63 38.36C35.31 36.65 39.3 33.6 42.16 29.51ZM30.23 36.01C26.17 34.44 22.72 31.74 20.22 28.17C17.63 24.48 16.27 20.15 16.27 15.65L16.27 5.48L30.23 2.37L44.19 5.48L44.19 15.65C44.19 20.15 42.82 24.48 40.24 28.17C37.74 31.74 34.29 34.44 30.23 36.01Z" fill="#181818" fill-opacity="1.000000" fill-rule="nonzero"/>
        <path id="Vector" d="M42.2 8.02C42.2 7.47 41.81 6.99 41.28 6.87L30.48 4.47C30.32 4.43 30.14 4.43 29.97 4.47L19.18 6.87C18.55 7.01 18.15 7.64 18.29 8.27C18.43 8.9 19.06 9.3 19.69 9.16L30.23 6.81L39.85 8.96L39.85 15.65C39.85 19.26 38.76 22.73 36.69 25.68C35.03 28.05 32.8 29.98 30.23 31.27C27.66 29.98 25.43 28.05 23.77 25.68C21.98 23.13 20.91 20.14 20.66 17.05C20.64 16.79 20.63 16.53 20.62 16.27C20.6 15.62 20.05 15.12 19.41 15.14C18.76 15.16 18.25 15.7 18.28 16.35C18.29 16.64 18.3 16.94 18.32 17.23C18.6 20.74 19.82 24.13 21.85 27.03C23.85 29.89 26.58 32.17 29.74 33.63C29.89 33.71 30.06 33.74 30.23 33.74C30.4 33.74 30.57 33.71 30.72 33.63C33.88 32.17 36.61 29.89 38.61 27.03C40.96 23.68 42.2 19.74 42.2 15.65L42.2 8.02L42.2 8.02Z" fill="#399A3A" fill-opacity="1.000000" fill-rule="nonzero"/>
        <path id="Vector" d="M26.89 21.74C27.1 21.98 27.39 22.13 27.71 22.15C27.73 22.15 27.76 22.15 27.79 22.15C28.08 22.15 28.36 22.05 28.57 21.85L37.07 14.16C37.55 13.73 37.58 12.99 37.15 12.51C36.72 12.03 35.98 11.99 35.5 12.42L27.9 19.3L25.73 16.73C25.31 16.24 24.57 16.18 24.08 16.59C23.58 17.01 23.52 17.75 23.94 18.25L26.89 21.74Z" fill="#181818" fill-opacity="1.000000" fill-rule="nonzero"/>
        <path id="Vector" d="M20.36 38.78C19.74 37.97 18.85 37.45 17.83 37.32C16.82 37.2 15.82 37.48 15.03 38.11C14.65 38.41 14.35 38.77 14.12 39.16L13.78 38.71C13.47 38.31 13.31 37.82 13.31 37.31L13.31 26.74C13.31 24.58 11.55 22.83 9.39 22.83C7.36 22.83 5.68 24.35 5.49 26.37L4.23 39.6C4.12 40.76 4.45 41.91 5.16 42.84L15.12 55.81L15.12 58.82C15.12 59.47 15.64 60 16.29 60C16.94 60 17.46 59.47 17.46 58.82L17.46 55.41C17.46 55.16 17.38 54.91 17.22 54.7L7.02 41.42C6.67 40.96 6.51 40.39 6.57 39.82L7.82 26.59C7.9 25.78 8.57 25.17 9.39 25.17C10.26 25.17 10.96 25.88 10.96 26.74L10.96 37.31C10.96 38.33 11.3 39.33 11.92 40.14L14.37 43.33C14.38 43.34 14.38 43.34 14.39 43.35L16.36 45.92C16.76 46.44 17.49 46.53 18.01 46.14C18.52 45.75 18.62 45.01 18.22 44.5L16.24 41.91C15.78 41.3 15.89 40.42 16.49 39.95C16.79 39.71 17.16 39.6 17.54 39.65C17.93 39.7 18.26 39.89 18.5 40.2L23.23 46.42C24.16 47.64 24.67 49.16 24.67 50.7L24.67 58.82C24.67 59.47 25.2 60 25.84 60C26.49 60 27.02 59.47 27.02 58.82L27.02 50.7C27.02 48.65 26.33 46.63 25.09 45L20.36 38.78Z" fill="#181818" fill-opacity="1.000000" fill-rule="nonzero"/>
        <path id="Vector" d="M55.9 39.6L54.64 26.37C54.45 24.35 52.77 22.83 50.74 22.83C48.58 22.83 46.82 24.58 46.82 26.74L46.82 37.31C46.82 37.82 46.66 38.31 46.35 38.71L46.01 39.16C45.78 38.77 45.48 38.41 45.1 38.11C44.31 37.48 43.31 37.2 42.3 37.32C41.28 37.45 40.39 37.97 39.77 38.78L35.04 45C33.8 46.63 33.12 48.65 33.12 50.7L33.12 58.82C33.12 59.47 33.64 60 34.29 60C34.93 60 35.46 59.47 35.46 58.82L35.46 50.7C35.46 49.16 35.97 47.64 36.9 46.42L41.63 40.2C41.87 39.89 42.21 39.7 42.59 39.65C42.97 39.6 43.34 39.71 43.64 39.95C44.24 40.42 44.35 41.3 43.89 41.91L41.91 44.5C41.51 45.01 41.61 45.75 42.12 46.14C42.64 46.53 43.37 46.44 43.77 45.92L45.74 43.35C45.75 43.34 45.75 43.34 45.76 43.33L48.21 40.14C48.83 39.33 49.17 38.33 49.17 37.31L49.17 26.74C49.17 25.88 49.87 25.17 50.74 25.17C51.56 25.17 52.23 25.78 52.31 26.59L53.56 39.82C53.62 40.39 53.46 40.96 53.11 41.42L42.91 54.7C42.75 54.91 42.67 55.16 42.67 55.42L42.67 58.82C42.67 59.47 43.19 60 43.84 60C44.49 60 45.01 59.47 45.01 58.82L45.01 55.81L54.98 42.84C55.68 41.91 56.01 40.76 55.9 39.6Z" fill="#181818" fill-opacity="1.000000" fill-rule="nonzero"/>
        <path id="Vector" d="M18.78 13.13C19.2 13.41 19.76 13.39 20.15 13.09C20.52 12.8 20.69 12.3 20.57 11.85C20.43 11.37 20 11.01 19.5 10.99C19 10.96 18.53 11.26 18.35 11.73C18.15 12.24 18.33 12.83 18.78 13.13Z" fill="#399A3A" fill-opacity="1.000000" fill-rule="nonzero"/>
    </g>
</svg>
