<svg width="99.001007" height="96.000000" viewBox="0 0 99.001 96" fill="none" xmlns="http://www.w3.org/2000/svg" xmlns:xlink="http://www.w3.org/1999/xlink">
	<desc>
			Created with Pixso.
	</desc>
	<defs/>
	<path id="logo" d="M7.33 95.92L7.33 88.57L4.47 88.57L4.47 87.92L10.87 87.92L10.87 88.57L8 88.57L8 95.92L7.33 95.92ZM13.19 95.92L13.19 87.93L18.44 87.93L18.44 88.57L13.85 88.57L13.85 91.52L17.87 91.52L17.87 92.16L13.85 92.16L13.85 95.28L18.54 95.28L18.54 95.92L13.19 95.92ZM24.34 96C24.08 96 23.83 95.97 23.57 95.91C23.32 95.84 23.07 95.75 22.84 95.63C22.39 95.39 22 95.08 21.67 94.69C21.35 94.3 21.09 93.86 20.92 93.38C20.73 92.89 20.64 92.39 20.64 91.87C20.64 91.38 20.73 90.91 20.89 90.45C21.06 89.98 21.3 89.55 21.62 89.17C21.95 88.78 22.34 88.47 22.8 88.25C23.27 88.01 23.81 87.89 24.4 87.89C25.11 87.89 25.72 88.06 26.22 88.39C26.46 88.54 26.68 88.73 26.87 88.94C27.06 89.16 27.21 89.4 27.33 89.66L27.4 89.79L26.81 90.06L26.75 89.94C26.62 89.69 26.47 89.48 26.27 89.28C26.1 89.11 25.9 88.97 25.68 88.85C25.48 88.74 25.26 88.66 25.03 88.61C24.8 88.57 24.58 88.54 24.35 88.54C24.12 88.54 23.9 88.56 23.68 88.61C23.46 88.66 23.25 88.74 23.05 88.84C22.68 89.03 22.36 89.29 22.09 89.61C21.83 89.93 21.63 90.29 21.5 90.69C21.36 91.09 21.29 91.49 21.29 91.91C21.29 92.36 21.37 92.79 21.53 93.21C21.69 93.62 21.91 93.99 22.19 94.31C22.47 94.63 22.8 94.88 23.18 95.07C23.36 95.16 23.56 95.23 23.76 95.28C23.97 95.32 24.17 95.35 24.38 95.35C24.62 95.34 24.86 95.31 25.1 95.25C25.34 95.19 25.58 95.1 25.8 94.98C26.03 94.86 26.24 94.71 26.43 94.53C26.63 94.33 26.79 94.11 26.92 93.86L26.98 93.74L27.57 93.98L27.5 94.12C27.37 94.42 27.18 94.69 26.95 94.93C26.72 95.17 26.46 95.36 26.17 95.52C25.89 95.68 25.59 95.8 25.27 95.87C24.97 95.95 24.66 95.99 24.34 96ZM35.46 95.92L35.46 92.16L30.66 92.16L30.66 95.92L30 95.92L30 87.93L30.66 87.93L30.66 91.52L35.46 91.52L35.46 87.93L36.13 87.93L36.13 95.92L35.46 95.92ZM45.23 95.92L39.91 89.21L39.91 95.92L39.25 95.92L39.25 87.93L39.75 87.93L45.16 94.76L45.16 87.94L45.82 87.94L45.82 95.92L45.23 95.92ZM52.17 95.98C51.9 95.98 51.65 95.95 51.39 95.89C51.13 95.83 50.89 95.74 50.65 95.62C50.2 95.4 49.81 95.09 49.48 94.71C49.15 94.33 48.89 93.9 48.72 93.42C48.54 92.94 48.45 92.44 48.45 91.93C48.45 91.4 48.55 90.89 48.74 90.4C48.92 89.92 49.18 89.49 49.52 89.11C49.85 88.73 50.24 88.43 50.7 88.21C50.93 88.1 51.17 88.01 51.42 87.96C51.67 87.9 51.92 87.87 52.18 87.88C52.44 87.87 52.7 87.9 52.96 87.96C53.21 88.02 53.46 88.11 53.69 88.23C54.15 88.46 54.54 88.77 54.86 89.16C55.19 89.55 55.44 89.99 55.62 90.46C55.71 90.7 55.78 90.95 55.82 91.2C55.87 91.45 55.89 91.71 55.89 91.97C55.88 92.22 55.86 92.48 55.81 92.73C55.76 92.98 55.69 93.23 55.6 93.47C55.42 93.94 55.16 94.37 54.82 94.75C54.49 95.13 54.09 95.43 53.64 95.64C53.41 95.75 53.17 95.84 52.92 95.89C52.67 95.95 52.42 95.98 52.17 95.98ZM52.17 88.53C51.95 88.53 51.74 88.55 51.53 88.6C51.32 88.65 51.12 88.72 50.93 88.82C50.56 89.02 50.23 89.28 49.96 89.6C49.69 89.92 49.48 90.28 49.34 90.68C49.19 91.08 49.11 91.5 49.11 91.93C49.11 92.37 49.19 92.79 49.34 93.21C49.49 93.61 49.7 93.97 49.98 94.29C50.25 94.61 50.57 94.86 50.95 95.04C51.14 95.14 51.33 95.21 51.54 95.26C51.75 95.3 51.96 95.33 52.17 95.32C52.39 95.33 52.6 95.3 52.81 95.25C53.02 95.2 53.22 95.13 53.41 95.03C53.78 94.83 54.1 94.58 54.38 94.26C54.48 94.13 54.57 94.01 54.66 93.87C54.74 93.74 54.82 93.59 54.89 93.45C54.96 93.3 55.01 93.16 55.06 93C55.11 92.85 55.14 92.69 55.17 92.54C55.2 92.38 55.21 92.22 55.22 92.06C55.22 91.9 55.22 91.74 55.2 91.58C55.19 91.42 55.16 91.26 55.13 91.1C55.09 90.95 55.04 90.8 54.99 90.65C54.84 90.24 54.62 89.88 54.34 89.56C54.07 89.25 53.74 89 53.37 88.81C53.19 88.71 52.99 88.64 52.79 88.6C52.58 88.55 52.38 88.53 52.17 88.53ZM58.51 95.92L58.51 87.93L59.17 87.93L59.17 95.28L63.87 95.28L63.87 95.92L58.51 95.92ZM68.83 95.98C68.56 95.98 68.3 95.95 68.05 95.89C67.79 95.83 67.54 95.74 67.31 95.62C66.86 95.4 66.47 95.09 66.14 94.71C65.8 94.33 65.55 93.9 65.38 93.42C65.2 92.94 65.11 92.44 65.11 91.93C65.11 91.4 65.2 90.89 65.39 90.4C65.58 89.92 65.84 89.49 66.17 89.11C66.51 88.73 66.9 88.43 67.35 88.21C67.58 88.1 67.82 88.01 68.08 87.96C68.33 87.9 68.58 87.87 68.83 87.88C69.1 87.87 69.36 87.9 69.61 87.96C69.87 88.02 70.12 88.11 70.35 88.23C70.8 88.46 71.19 88.77 71.52 89.16C71.85 89.55 72.1 89.99 72.27 90.46C72.36 90.7 72.43 90.95 72.48 91.2C72.52 91.45 72.54 91.71 72.54 91.97C72.54 92.22 72.52 92.48 72.47 92.73C72.42 92.98 72.35 93.23 72.26 93.47C72.07 93.94 71.81 94.37 71.48 94.75C71.14 95.13 70.75 95.43 70.3 95.64C70.07 95.75 69.83 95.84 69.58 95.89C69.33 95.95 69.08 95.98 68.83 95.98ZM68.83 88.53C68.61 88.53 68.4 88.55 68.19 88.6C67.98 88.65 67.77 88.72 67.58 88.82C67.21 89.02 66.89 89.28 66.62 89.6C66.35 89.92 66.14 90.28 66 90.68C65.92 90.88 65.86 91.09 65.83 91.3C65.79 91.51 65.77 91.73 65.77 91.94C65.77 92.16 65.79 92.37 65.83 92.59C65.87 92.8 65.92 93.01 66 93.21C66.14 93.61 66.36 93.97 66.64 94.29C66.91 94.61 67.23 94.86 67.6 95.04C67.8 95.14 67.99 95.21 68.2 95.26C68.41 95.3 68.62 95.33 68.83 95.32C69.05 95.33 69.26 95.3 69.47 95.25C69.68 95.2 69.88 95.13 70.07 95.03C70.44 94.84 70.76 94.58 71.04 94.26C71.14 94.14 71.23 94.01 71.32 93.87C71.4 93.74 71.48 93.6 71.55 93.45C71.61 93.31 71.67 93.16 71.72 93C71.77 92.85 71.8 92.69 71.83 92.54C71.86 92.38 71.87 92.22 71.88 92.06C71.88 91.9 71.88 91.74 71.86 91.58C71.85 91.42 71.82 91.26 71.79 91.11C71.75 90.95 71.7 90.8 71.65 90.65C71.5 90.25 71.28 89.88 71 89.56C70.72 89.25 70.4 89 70.03 88.81C69.84 88.71 69.65 88.64 69.44 88.6C69.24 88.55 69.03 88.53 68.83 88.53ZM78.41 95.98C78.15 95.98 77.89 95.95 77.63 95.89C77.38 95.83 77.13 95.74 76.89 95.62C76.44 95.39 76.04 95.08 75.71 94.69C75.38 94.3 75.12 93.87 74.94 93.39C74.76 92.92 74.66 92.43 74.66 91.93C74.66 91.4 74.75 90.9 74.93 90.41C75.1 89.93 75.35 89.5 75.68 89.12C76 88.74 76.39 88.44 76.83 88.22C77.06 88.1 77.3 88.02 77.55 87.96C77.8 87.9 78.05 87.88 78.31 87.88C78.67 87.87 79.03 87.92 79.39 88.01C79.7 88.08 79.98 88.21 80.25 88.37C80.5 88.52 80.71 88.71 80.9 88.93C81.08 89.15 81.23 89.39 81.36 89.64L81.42 89.77L80.85 90.06L80.79 89.94C80.52 89.44 80.18 89.08 79.76 88.86C79.53 88.74 79.3 88.66 79.05 88.6C78.81 88.55 78.56 88.52 78.31 88.52C78.09 88.52 77.88 88.54 77.67 88.59C77.46 88.64 77.26 88.72 77.07 88.82C76.7 89.01 76.39 89.27 76.13 89.59C75.86 89.91 75.67 90.28 75.53 90.67C75.39 91.08 75.33 91.49 75.32 91.92C75.32 92.37 75.4 92.8 75.57 93.21C75.73 93.61 75.95 93.97 76.23 94.29C76.51 94.6 76.84 94.85 77.21 95.04C77.4 95.13 77.6 95.2 77.8 95.25C78.01 95.29 78.21 95.32 78.42 95.32C78.65 95.32 78.88 95.29 79.1 95.24C79.32 95.18 79.53 95.1 79.74 95C80.14 94.79 80.54 94.46 80.92 94.02L80.92 92.55L79.15 92.55L79.15 91.93L81.56 91.93L81.56 95.92L80.92 95.92L80.92 94.9C80.19 95.61 79.35 95.98 78.41 95.98ZM86.17 95.92L86.17 92.85L83 87.93L83.76 87.93L86.5 92.18L89.26 87.93L90.03 87.93L86.83 92.87L86.83 95.92L86.17 95.92ZM0 76.2L2.12 76.2L2.12 67.48L8.89 76.2L10.7 76.2L10.7 63.95L8.58 63.95L8.58 72.42L2 63.95L0 63.95L0 76.2ZM19.72 76.41C23.5 76.41 26.17 73.52 26.17 70.07C26.17 66.59 23.53 63.74 19.76 63.74C15.99 63.74 13.32 66.63 13.32 70.07C13.32 73.56 15.95 76.41 19.72 76.41ZM19.76 74.43C17.32 74.43 15.58 72.45 15.58 70.07C15.58 67.66 17.28 65.72 19.72 65.72C22.16 65.72 23.9 67.69 23.9 70.07C23.9 72.49 22.2 74.43 19.76 74.43ZM34.05 76.2L38.63 76.2C42.49 76.2 45.16 73.52 45.16 70.07C45.16 66.59 42.49 63.95 38.63 63.95L34.05 63.95L34.05 76.2ZM36.21 74.24L36.21 65.91L38.63 65.91C41.21 65.91 42.9 67.68 42.9 70.07C42.9 72.51 41.21 74.24 38.63 74.24L36.21 74.24ZM53.64 76.41C57.41 76.41 60.08 73.52 60.08 70.07C60.08 66.59 57.45 63.74 53.67 63.74C49.9 63.74 47.23 66.63 47.23 70.07C47.23 73.56 49.86 76.41 53.64 76.41ZM53.67 74.43C51.23 74.43 49.5 72.45 49.5 70.07C49.5 67.66 51.2 65.72 53.64 65.72C56.08 65.72 57.82 67.69 57.82 70.07C57.82 72.49 56.11 74.43 53.67 74.43ZM68.56 76.41C72.33 76.41 75 73.52 75 70.07C75 66.59 72.37 63.74 68.59 63.74C64.82 63.74 62.15 66.63 62.15 70.07C62.15 73.56 64.78 76.41 68.56 76.41ZM68.59 74.43C66.15 74.43 64.42 72.45 64.42 70.07C64.42 67.66 66.12 65.72 68.56 65.72C71 65.72 72.74 67.69 72.74 70.07C72.74 72.49 71.03 74.43 68.59 74.43ZM77.62 76.2L79.78 76.2L79.78 71.93L82.44 71.93L85.5 76.2L88.04 76.2L84.73 71.56C86.45 71.07 87.66 69.86 87.66 67.85C87.66 65.49 85.97 63.95 83.09 63.95L77.62 63.95L77.62 76.2ZM79.78 70.02L79.78 65.91L82.92 65.91C84.51 65.91 85.46 66.63 85.46 67.94C85.46 69.22 84.48 70.02 82.93 70.02L79.78 70.02ZM94.61 76.37C97.19 76.37 99 75.01 99 72.72C99 70.65 97.64 69.72 95.05 69.09C92.69 68.53 92.13 68.11 92.13 67.17C92.13 66.33 92.87 65.68 94.13 65.68C95.26 65.68 96.36 66.12 97.47 66.94L98.63 65.31C97.38 64.32 95.96 63.77 94.17 63.77C91.73 63.77 89.97 65.23 89.97 67.33C89.97 69.62 91.45 70.39 94.06 71C96.35 71.54 96.84 72.02 96.84 72.89C96.84 73.85 95.99 74.47 94.66 74.47C93.13 74.47 91.96 73.89 90.78 72.87L89.48 74.41C90.96 75.73 92.73 76.37 94.61 76.37ZM20.65 0L78.68 0C80.14 0 81.33 1.18 81.33 2.64L81.33 54.35C81.33 55.8 80.14 56.99 78.68 56.99L20.65 56.99C19.2 56.99 18 55.8 18 54.35L18 2.64C18 1.18 19.2 0 20.65 0ZM32.37 13.57L36.1 13.65L35.97 9.97L28.38 10.13L28.42 45.3C30.23 45.83 51.32 45.77 54.27 45.47C54.14 44.12 53.57 43.04 52.81 42.03L32.33 41.98L32.37 13.57ZM63 14.73C69.72 16.84 68.32 35.03 65.68 38.77C63.81 41.4 61.71 40.99 58.63 42C58.25 43.43 58.77 44.11 59.57 45.25C68.97 45.47 71.8 38.98 72.05 29.84C72.28 21.15 71.31 11.54 62.99 10.79L63 14.73ZM62.64 45.65L59.22 45.79L46.17 14.05L42.59 13.97C42.78 16.11 55.56 47.09 57.5 51.76L62.47 51.77L62.64 45.65ZM40.22 9.46L43.91 9.54C43.9 8.02 42.56 5.27 41.92 3.73L36.64 3.82L36.71 41.57L40.53 41.73L40.22 9.46ZM62.54 40.65L62.5 3.76L58.65 3.78L58.91 41.41L62.54 40.65ZM40.9 13.51L58.21 13.53L58.21 9.93L40.74 9.94L40.9 13.51ZM36.66 51.7L40.51 51.68L40.54 46.14L36.61 46.12L36.66 51.7Z" fill="#FFFFFF" fill-opacity="1.000000" fill-rule="nonzero"/>
</svg>
